:version 1.10
:name ASF
:units
  mass 1
  length 1
  angle deg
:documentation
  ASF file generated by Kaydara
:root
  axis xyz
  order  tx ty tz rx ry rz
  position 0 0 0
  orientation 0 0 0
:bonedata
  begin
    id 1
    name RightUpLegDummy
    direction -1 2.30186e-007 8.31532e-007
    length 4.46685
    axis 0 0 0 xyz
  end
  begin
    id 2
    name RightUpLeg
    direction -2.30187e-007 -1 1.24343e-010
    length 16.4045
    axis -3.49089 -0.000906625 0.000286804 xyz
    dof rx ry rz
  end
  begin
    id 3
    name RightLeg
    direction -2.30181e-007 -1 -4.17157e-009
    length 17.5097
    axis 3.68512 0.0193738 -0.131023 xyz
    dof rx ry rz
  end
  begin
    id 4
    name RightFoot
    direction 8.31421e-007 -4.51202e-011 1
    length 6.49508
    axis 4.81691e-005 -0.120479 -0.188788 xyz
    dof rx ry rz
  end
  begin
    id 5
    name RightToes
    direction 0.00124746 -0.014064 0.9999
    length 3.85082
    axis 0.000481921 0.542163 -0.142578 xyz
    dof rx ry rz
  end
  begin
    id 6
    name SpineDummy
    direction 0.0717043 0.9409 -0.331007
    length 10.0032
    axis 0 0 0 xyz
  end
  begin
    id 7
    name Spine
    direction 2.30186e-007 1 4.58806e-011
    length 9.84055
    axis -0.001389 0.000121418 2.40972e-006 xyz
    dof rx ry rz
  end
  begin
    id 8
    name Spine1
    direction 0 0 0
    length 0
    axis -0.001389 0.000121451 1.30017e-006 xyz
    dof rx ry rz
  end
  begin
    id 9
    name HEadDummy
    direction -0.00347485 0.950688 -0.310128
    length 8.00997
    axis -0.001389 0.000121451 1.30017e-006 xyz
  end
  begin
    id 10
    name HEad
    direction -0.0222688 0.980941 0.193023
    length 5.12695
    axis -0.001389 0.000121451 1.30017e-006 xyz
    dof rx ry rz
  end
  begin
    id 11
    name LeftShoulder1Dummy
    direction 0.988871 0.146793 -0.0242004
    length 3.5792
    axis -0.001389 0.000121451 1.30017e-006 xyz
  end
  begin
    id 12
    name LeftShoulder1
    direction 0.993832 0.108932 0.020779
    length 4.16823
    axis -0.001389 0.000121451 1.30017e-006 xyz
    dof rx ry rz
  end
  begin
    id 13
    name LeftArm
    direction 1 3.44807e-006 -8.31404e-007
    length 9.91437
    axis -23.1894 0.134784 0.967509 xyz
    dof rx ry rz
  end
  begin
    id 14
    name LeftForeArm
    direction 1 3.44842e-006 -8.31581e-007
    length 9.08575
    axis -9.91835 -0.06569 -0.177793 xyz
    dof rx ry rz
  end
  begin
    id 15
    name LeftHand
    direction 0.992938 -0.0411636 0.11126
    length 5.32135
    axis -0.00960232 -0.00340091 0.185173 xyz
    dof rx ry rz
  end
  begin
    id 16
    name RightShoulderDummy
    direction -0.988871 0.146793 -0.0241962
    length 3.5792
    axis -0.001389 0.000121451 1.30017e-006 xyz
  end
  begin
    id 17
    name RightShoulder
    direction -0.993832 0.108933 0.0207785
    length 4.16823
    axis 0.215806 0.000203643 -0.0068026 xyz
    dof rx ry rz
  end
  begin
    id 18
    name RightArm
    direction -1 3.90912e-006 8.31284e-007
    length 9.91437
    axis -23.2009 -0.134239 -0.964101 xyz
    dof rx ry rz
  end
  begin
    id 19
    name RightForeArm
    direction -1 3.90882e-006 8.31502e-007
    length 9.08575
    axis -9.92322 0.0658061 0.178867 xyz
    dof rx ry rz
  end
  begin
    id 20
    name RightHand
    direction -0.992843 -0.0414603 0.112003
    length 5.28593
    axis -0.00960638 0.00330671 -0.185228 xyz
    dof rx ry rz
  end
  begin
    id 21
    name LeftUpLegDummy
    direction 1 -2.30186e-007 -8.31532e-007
    length 4.46685
    axis 0 0 0 xyz
  end
  begin
    id 22
    name LeftUpLeg
    direction -2.30187e-007 -1 6.00931e-010
    length 16.4045
    axis -3.48766 0.00143442 -0.000524262 xyz
    dof rx ry rz
  end
  begin
    id 23
    name LeftLeg
    direction -2.30187e-007 -1 1.6669e-009
    length 17.5097
    axis 3.68178 -0.00654042 -0.000285133 xyz
    dof rx ry rz
  end
  begin
    id 24
    name LeftFoot
    direction 8.31532e-007 -4.54478e-011 1
    length 6.49508
    axis 1.87233e-006 4.66016e-005 -8.6538e-006 xyz
    dof rx ry rz
  end
  begin
    id 25
    name LeftToes
    direction 0.00818058 -0.00485161 0.999955
    length 3.85048
    axis 1.06247e-005 4.65869e-005 -8.65513e-006 xyz
    dof rx ry rz
  end
:hierarchy
  begin
    root RightUpLegDummy SpineDummy LeftUpLegDummy
    RightUpLegDummy RightUpLeg
    RightUpLeg RightLeg
    RightLeg RightFoot
    RightFoot RightToes
    SpineDummy Spine
    Spine Spine1
    Spine1 HEadDummy LeftShoulder1Dummy RightShoulderDummy
    HEadDummy HEad
    LeftShoulder1Dummy LeftShoulder1
    LeftShoulder1 LeftArm
    LeftArm LeftForeArm
    LeftForeArm LeftHand
    RightShoulderDummy RightShoulder
    RightShoulder RightArm
    RightArm RightForeArm
    RightForeArm RightHand
    LeftUpLegDummy LeftUpLeg
    LeftUpLeg LeftLeg
    LeftLeg LeftFoot
    LeftFoot LeftToes
  end

:SAMPLES-PER-SECOND 30
:FULLY-SPECIFIED
:DEGREES
97
root  23.6058 30.6704 10.2432 -163.736 -57.9327 -178.718
RightUpLeg  -29.7379 -3.3762 -4.35278
RightLeg  47.0189 -5.98157 -5.65036
RightFoot  -19.272 0.444032 2.99249
RightToes  -33.5979 -0.169465 -0.276178
Spine  11.6936 0.246675 3.13122
Spine1  21.4456 0.677884 5.31332
HEad  -10.3514 5.45219 2.53652
LeftShoulder1  0 -2.42657e-020 -4.95415e-022
LeftArm  -2.87305 -0.958659 -91.0242
LeftForeArm  31.141 -70.5682 -30.1896
LeftHand  0.0406253 0.582945 7.51349
RightShoulder  0 2.42657e-020 1.07489e-018
RightArm  4.65507 7.56512 72.5612
RightForeArm  90.4358 76.9689 50.0822
RightHand  -6.1333 16.8952 -39.3156
LeftUpLeg  -59.4969 26.6721 -11.017
LeftLeg  36.7979 -0.657415 -0.433585
LeftFoot  7.44855 0.00687126 0.00762844
LeftToes  -9.14907 1.33192e-006 1.13262e-007
98
root  22.5837 30.7678 10.2139 -162.494 -64.1194 179.193
RightUpLeg  -25.7818 -7.1144 -5.14335
RightLeg  46.5266 -7.54597 -6.97598
RightFoot  -18.1044 0.500828 3.52049
RightToes  -35.9437 -0.186918 -0.291081
Spine  11.3616 0.471644 2.95993
Spine1  20.4476 0.993942 5.60719
HEad  -11.8752 0.510362 5.12163
LeftShoulder1  0 -2.42657e-020 -4.95415e-022
LeftArm  -2.66429 -4.95528 -91.3976
LeftForeArm  37.2835 -71.5821 -32.2087
LeftHand  -0.0871996 -0.947552 10.2202
RightShoulder  0 2.42657e-020 1.07489e-018
RightArm  5.26744 9.09481 71.9133
RightForeArm  102.835 78.057 57.0131
RightHand  -6.48608 14.6476 -47.2305
LeftUpLeg  -57.0608 22.55 -11.675
LeftLeg  36.2705 -2.31486 -1.48373
LeftFoot  8.17247 0.0221546 -0.252131
LeftToes  -5.85455 1.33192e-006 1.13262e-007
99
root  21.4786 30.963 10.2665 -160.074 -70.4381 175.95
RightUpLeg  -23.4041 -9.32175 -5.99942
RightLeg  49.2909 -9.61834 -9.72107
RightFoot  -13.2202 0.36214 3.50204
RightToes  -43.0124 -0.242984 -0.331499
Spine  11.0591 0.534609 2.81649
Spine1  19.5452 1.0443 5.72552
HEad  -13.4967 -3.88099 7.67238
LeftShoulder1  0 -2.42657e-020 -4.95415e-022
LeftArm  -0.64682 -9.23976 -92.7541
LeftForeArm  42.4973 -72.5137 -34.3062
LeftHand  -0.186534 -1.53493 13.548
RightShoulder  0 2.42657e-020 1.07489e-018
RightArm  5.06908 10.8164 71.143
RightForeArm  109.401 78.2578 58.5123
RightHand  -6.53986 12.2346 -55.7777
LeftUpLeg  -54.0374 18.4677 -12.5137
LeftLeg  35.1855 -4.22708 -2.59112
LeftFoot  8.03233 0.0390774 -0.550962
LeftToes  0.823947 1.33192e-006 1.13262e-007
100
root  20.4345 31.1817 10.296 -156.582 -76.0715 171.695
RightUpLeg  -23.7479 -9.00212 -6.10911
RightLeg  56.2338 -10.8798 -13.8966
RightFoot  -6.36859 0.108669 2.33092
RightToes  -42.0849 -0.235349 -0.326594
Spine  10.9141 0.485964 2.68269
Spine1  19.0129 0.912141 5.64933
HEad  -15.0665 -7.36396 10.0784
LeftShoulder1  0 -2.42657e-020 -4.95415e-022
LeftArm  1.52903 -12.8386 -94.3844
LeftForeArm  43.0838 -73.5818 -37.0675
LeftHand  -0.172103 -1.64116 11.6514
RightShoulder  0 2.42657e-020 1.07489e-018
RightArm  4.638 13.6765 70.5329
RightForeArm  109.766 77.5988 53.5967
RightHand  -6.37098 10.2443 -63.3337
LeftUpLeg  -50.9811 15.6515 -13.2132
LeftLeg  34.2196 -6.5474 -3.85266
LeftFoot  7.46509 0.0561646 -0.860919
LeftToes  4.02349 1.33192e-006 1.13262e-007
101
root  19.4305 31.3614 10.2466 -147.715 -81.4105 161.935
RightUpLeg  -25.4982 -8.6513 -5.74083
RightLeg  64.0232 -9.29376 -15.9232
RightFoot  -2.93897 0.0225697 1.25764
RightToes  -24.7711 -0.109621 -0.214032
Spine  10.8201 0.292625 2.41297
Spine1  18.5892 0.514036 5.22855
HEad  -16.2637 -10.5638 12.6465
LeftShoulder1  0 -2.42657e-020 -4.95415e-022
LeftArm  3.03581 -16.5725 -95.7044
LeftForeArm  41.1796 -73.061 -35.6648
LeftHand  -0.149072 -1.95511 8.37936
RightShoulder  0 2.42657e-020 1.07489e-018
RightArm  2.57946 15.5921 71.1418
RightForeArm  111.047 76.9058 49.4267
RightHand  -6.06585 8.91726 -68.0609
LeftUpLeg  -47.8579 13.1077 -13.6858
LeftLeg  33.5984 -8.95889 -5.12458
LeftFoot  6.87194 0.0680999 -1.1342
LeftToes  6.08164 1.33192e-006 1.13262e-007
102
root  18.4924 31.4812 10.1588 -106.14 -86.491 119.65
RightUpLeg  -27.1588 -9.20979 -5.0384
RightLeg  68.0464 -4.30132 -9.02196
RightFoot  -5.50959 0.0381961 1.1715
RightToes  -28.5365 -0.133974 -0.241667
Spine  10.8631 -0.346164 2.36358
Spine1  18.4409 -0.824427 5.06228
HEad  -18.0774 -13.2922 15.498
LeftShoulder1  0 -2.42657e-020 -4.95415e-022
LeftArm  5.70351 -21.941 -96.6584
LeftForeArm  37.114 -70.7003 -30.4472
LeftHand  -0.178025 -2.18528 8.97205
RightShoulder  0 2.42657e-020 1.07489e-018
RightArm  -0.408787 17.5969 71.6601
RightForeArm  113.799 76.8255 48.9461
RightHand  -5.94095 8.27912 -70.9519
LeftUpLeg  -45.2003 9.46218 -13.4544
LeftLeg  33.6489 -10.9429 -6.25053
LeftFoot  6.28456 0.072885 -1.32759
LeftToes  7.54415 1.33192e-006 1.13262e-007
